<?xml version="1.0" encoding="UTF-8"?>
<svg id="Capa_2" data-name="Capa 2" xmlns="http://www.w3.org/2000/svg" viewBox="0 0 364.29 364.29">
  <defs>
    <style>
      .cls-1 {
        fill: #000;
      }

      .cls-1, .cls-2 {
        stroke-width: 0px;
      }

      .cls-2 {
        fill: #fff;
      }
    </style>
  </defs>
  <g id="Capa_1-2" data-name="Capa 1">
    <g id="Logo">
      <circle id="Disco" class="cls-1" cx="182.14" cy="182.14" r="182.14"/>
      <path id="YR" class="cls-2" d="M273.6,209.2l13.23,13.07c9.43,9.43,9.42,24.87-.01,34.31l-1.22,1.22c-9.43,9.43-24.86,9.43-34.29,0l-30.3-30.3c-9.43-9.43-9.44-24.87-.01-34.31l18-18c5.79-6.18,5.65-15.91-.37-21.93-6.23-6.23-16.3-6.29-22.46-.14l-.04-.04-100.73,100.73c-9.44,9.44-24.86,9.44-34.31-.01l-1.21-1.21c-9.44-9.44-9.44-24.86,0-34.29l35.78-35.78-38.18-38.18c-9.44-9.44-9.44-24.88,0-34.32l1.22-1.22c9.43-9.43,24.87-9.43,34.31.01l38.18,38.18,29.43-29.43c.18-.18.36-.36.55-.54,25.14-24.51,66.82-23.03,91.78,1.93,24.84,24.84,25.08,65.12.67,90.24Z"/>
    </g>
  </g>
</svg>