<?xml version="1.0" encoding="UTF-8"?>
<svg id="Capa_2" data-name="Capa 2" xmlns="http://www.w3.org/2000/svg" version="1.1" viewBox="0 0 364.3 364.3">
  <defs>
    <style>
      .cls-1 {
        fill: #fff;
        stroke-width: 0px;
      }
    </style>
  </defs>
  <path class="cls-1" d="M182.1,0C81.5,0,0,81.5,0,182.1s81.5,182.1,182.1,182.1,182.1-81.5,182.1-182.1S282.7,0,182.1,0ZM286.8,256.6l-1.2,1.2c-9.4,9.4-24.9,9.4-34.3,0l-30.3-30.3c-9.4-9.4-9.4-24.9,0-34.3l18-18c5.8-6.2,5.7-15.9-.4-21.9s-16.3-6.3-22.5-.1h0s-100.7,100.7-100.7,100.7c-9.4,9.4-24.9,9.4-34.3,0l-1.2-1.2c-9.4-9.4-9.4-24.9,0-34.3l35.8-35.8-38.2-38.2c-9.4-9.4-9.4-24.9,0-34.3l1.2-1.2c9.4-9.4,24.9-9.4,34.3,0l38.2,38.2,29.4-29.4c.2-.2.4-.4.5-.5,25.1-24.5,66.8-23,91.8,1.9s25.1,65.1.7,90.2h0s13.2,13.1,13.2,13.1c9.4,9.4,9.4,24.9,0,34.3Z"/>
</svg>